<svg xmlns="http://www.w3.org/2000/svg" id="Camada_2" data-name="Camada 2" viewBox="0 0 1151.61 448.87"><defs><style>.cls-2{fill:#b9ff3a}</style></defs><g id="Camada_1-2" data-name="Camada 1"><path d="M416.85 0h53.04c6.64 0 12.04 5.39 12.04 12.04V301.4h-65.07V0Z" class="cls-2"/><path d="M870.76 0 711.8 302.18h-71.32L786.17 27.31A51.362 51.362 0 0 1 831.56 0h39.2Z" style="fill:#ccc"/><path d="m582.1 27.02 79.75 150.75-36.08 68.83L494.62 0h42.25c18.9 0 36.27 10.38 45.23 27.02Zm569.51 275.16h-71.31L954.26 62.64 842.7 274.72a51.386 51.386 0 0 1-45.47 27.46h-40.32L902.62 27.31A51.38 51.38 0 0 1 948.01 0h43.41l160.19 302.18Zm-756.92 0h-71.31L197.35 62.64 85.79 274.72a51.386 51.386 0 0 1-45.47 27.46H0L145.71 27.31A51.38 51.38 0 0 1 191.1 0h43.41L394.7 302.18Z" class="cls-2"/><path d="M461.91 433.08c-4.3 0-7.65-.82-10.06-2.46-2.41-1.64-4.15-3.51-5.22-5.6h-1.19v6.88h-6.54v-59.43h6.71v24.45h1.19c.68-1.3 1.64-2.53 2.89-3.69 1.24-1.16 2.87-2.12 4.88-2.89 2.01-.76 4.46-1.15 7.34-1.15 3.62 0 6.92.86 9.89 2.59 2.97 1.73 5.34 4.19 7.09 7.39 1.75 3.2 2.63 7 2.63 11.42v1.1c0 4.42-.89 8.24-2.68 11.46-1.78 3.23-4.16 5.69-7.13 7.39-2.97 1.7-6.24 2.55-9.81 2.55Zm-1.78-5.94c4.3 0 7.8-1.37 10.48-4.12s4.03-6.58 4.03-11.5v-.76c0-4.92-1.34-8.76-4.03-11.5-2.69-2.74-6.19-4.12-10.48-4.12s-7.74 1.37-10.48 4.12-4.12 6.58-4.12 11.5v.76c0 4.92 1.37 8.76 4.12 11.5 2.74 2.74 6.24 4.12 10.48 4.12Zm38.46 21.73v-5.94h23.77c1.64 0 2.46-.85 2.46-2.55v-15.11h-1.19c-.57 1.19-1.43 2.37-2.59 3.52s-2.67 2.09-4.54 2.8-4.22 1.06-7.05 1.06c-3 0-5.76-.65-8.28-1.95-2.52-1.3-4.5-3.23-5.94-5.77-1.44-2.55-2.17-5.66-2.17-9.34v-25.21h6.71v24.71c0 4.07 1.03 7.05 3.1 8.91 2.07 1.87 4.85 2.8 8.36 2.8 3.96 0 7.21-1.3 9.76-3.91 2.55-2.6 3.82-6.48 3.82-11.63v-20.89h6.71v51.19c0 2.26-.64 4.05-1.91 5.35-1.28 1.3-3.13 1.95-5.56 1.95h-25.47Zm79.3-16.98-14.86-41.52h7.13l12.48 36.51h1.19l12.48-36.51h7.13l-14.86 41.52h-10.7Zm38.62-47.97c-1.47 0-2.7-.48-3.69-1.44-.99-.96-1.49-2.18-1.49-3.65s.49-2.77 1.49-3.74c.99-.96 2.22-1.44 3.69-1.44s2.69.48 3.65 1.44 1.44 2.21 1.44 3.74-.48 2.69-1.44 3.65-2.18 1.44-3.65 1.44Zm-3.39 47.97v-41.52h6.71v41.52h-6.71Zm18.93 0v-8.66l26.4-26.07v-.93h-25.56v-5.86h32.6v8.66L639 425.1v1.02h27.17v5.77h-34.13Zm63.51 1.19c-4.19 0-7.87-.89-11.04-2.67-3.17-1.78-5.63-4.29-7.39-7.51s-2.63-6.96-2.63-11.21v-1.02c0-4.3.88-8.07 2.63-11.29s4.19-5.73 7.3-7.51c3.11-1.78 6.68-2.67 10.7-2.67s7.36.84 10.36 2.51c3 1.67 5.35 4.06 7.05 7.17 1.7 3.11 2.55 6.76 2.55 10.95v3.06h-33.87c.17 4.47 1.61 7.97 4.33 10.48 2.72 2.52 6.11 3.78 10.19 3.78 3.57 0 6.31-.82 8.24-2.46 1.92-1.64 3.39-3.59 4.41-5.86l5.77 2.8c-.85 1.75-2.02 3.51-3.52 5.26-1.5 1.76-3.45 3.23-5.86 4.42s-5.48 1.78-9.21 1.78Zm-14.27-25.73h27c-.23-3.85-1.54-6.85-3.95-9-2.41-2.15-5.48-3.23-9.21-3.23s-6.91 1.08-9.34 3.23c-2.43 2.15-3.93 5.15-4.5 9Z" style="fill:#fff"/></g></svg>